<svg width="48" height="48" viewBox="0 0 48 48" fill="none" xmlns="http://www.w3.org/2000/svg">
<path d="M24 3.75C19.9949 3.75 16.0798 4.93764 12.7497 7.16274C9.41962 9.38784 6.82412 12.5505 5.29145 16.2507C3.75877 19.9509 3.35776 24.0225 4.13911 27.9506C4.92046 31.8787 6.84908 35.4869 9.6811 38.3189C12.5131 41.1509 16.1213 43.0796 20.0494 43.8609C23.9775 44.6423 28.0491 44.2412 31.7493 42.7086C35.4496 41.1759 38.6122 38.5804 40.8373 35.2503C43.0624 31.9202 44.25 28.0051 44.25 24C44.2441 18.6312 42.1087 13.484 38.3123 9.68767C34.516 5.89134 29.3688 3.75596 24 3.75ZM24 39.75C20.885 39.75 17.8399 38.8263 15.2498 37.0956C12.6597 35.365 10.641 32.9052 9.44891 30.0273C8.25683 27.1493 7.94492 23.9825 8.55264 20.9273C9.16036 17.8721 10.6604 15.0657 12.8631 12.8631C15.0658 10.6604 17.8721 9.16035 20.9273 8.55263C23.9825 7.94491 27.1493 8.25682 30.0273 9.4489C32.9052 10.641 35.365 12.6597 37.0957 15.2498C38.8263 17.8398 39.75 20.8849 39.75 24C39.7455 28.1758 38.0847 32.1793 35.132 35.132C32.1793 38.0847 28.1758 39.7455 24 39.75Z" fill="#4C4C4C"/>
</svg>
